<svg xmlns="http://www.w3.org/2000/svg" xmlns:xlink="http://www.w3.org/1999/xlink" width="79.711" height="94.214" viewBox="0 0 79.711 94.214"><defs><clipPath id="a"><rect width="79.711" height="94.214" transform="translate(0 0)" fill="none"/></clipPath></defs><g transform="translate(0 -0.004)"><g transform="translate(0 0.004)" clip-path="url(#a)"><path d="M102.309,0C97.72,4.1,89.631,7.878,77.8,7.878S53.692,4.1,49.1,0L38.933,1.657,50.068,21.348l54.128-.476L115.729,1.657Z" transform="translate(-37.475 -0.004)" fill="#131428"/><path d="M232.5,243.218a33.991,33.991,0,1,1-67.982,0c0-18.773,15.218-33.049,33.991-33.049S232.5,224.446,232.5,243.218" transform="translate(-158.351 -202.299)" fill="#131428"/><path d="M232.367,167.54l2.125-3.876q-.7-3.437-1.681-6.891-1.694-5.755-4.133-11.752a91.478,91.478,0,0,0-6.975-13.538l-6.078.608a122.53,122.53,0,0,1,8.344,13.963l0-.006.374.748c1,1.969,2.009,4.08,2.98,6.3l.131.3,0,0a92.7,92.7,0,0,1,4.909,14.146" transform="translate(-207.551 -126.56)" fill="#c7ff00" fill-rule="evenodd"/><path d="M675.251,1129.62a31.153,31.153,0,0,0-3.417-7.385v0a23.1,23.1,0,0,0-3.221-3.808c1.534,6.439,2.318,12.856,1.286,19.121.944,1.079,4.583,2.813,5.406,3.115a.367.367,0,0,1,.024-.052h0a19.663,19.663,0,0,0-.075-10.989" transform="translate(-643.575 -1076.544)" fill="#c7ff00" fill-rule="evenodd"/><path d="M1419.178,167.54l-2.125-3.876q.7-3.437,1.681-6.891,1.695-5.755,4.133-11.752a91.5,91.5,0,0,1,6.975-13.538l6.078.608a122.5,122.5,0,0,0-8.344,13.963l0-.006-.374.748c-1,1.969-2.009,4.08-2.98,6.3l-.131.3,0,0a92.694,92.694,0,0,0-4.909,14.146" transform="translate(-1363.989 -126.56)" fill="#c7ff00" fill-rule="evenodd"/><path d="M1269.5,1129.62a31.153,31.153,0,0,1,3.417-7.385.01.01,0,0,0,0,0,23.093,23.093,0,0,1,3.221-3.808c-1.534,6.439-2.318,12.856-1.286,19.121-.944,1.079-4.584,2.813-5.406,3.115a.381.381,0,0,0-.024-.052h0a19.666,19.666,0,0,1,.075-10.989" transform="translate(-1221.171 -1076.544)" fill="#c7ff00" fill-rule="evenodd"/><path d="M471.015,180.221a47.41,47.41,0,0,1-23.235-6.043A147.064,147.064,0,0,1,454.7,189.1a100.263,100.263,0,0,1,4.218,14.109l11.425-20.844.389-.638.286-.382.286.382.389.638,11.425,20.844a100.264,100.264,0,0,1,4.218-14.109,147.044,147.044,0,0,1,6.916-14.921,47.41,47.41,0,0,1-23.235,6.043" transform="translate(-431.012 -167.656)" fill="#c7ff00" fill-rule="evenodd"/><path d="M302.953,437.213l-2.435,5.313a25.465,25.465,0,0,1,4.17,13.987,25.832,25.832,0,0,1-18.509,24.676,34.085,34.085,0,0,1-1.047-7.481,19.274,19.274,0,0,1,1.534-7.379,23.459,23.459,0,0,1,1.46-3.333,26.358,26.358,0,0,1,2.823-4.236c.792-1.128,1.4-1.863,1.651-2.154l-13.613-24.834v0l-.028-.05-.048-.087h0l-.048.087-.028.05v0l-13.613,24.834c.25.292.859,1.026,1.651,2.154A26.358,26.358,0,0,1,269.7,463a23.463,23.463,0,0,1,1.46,3.333,19.274,19.274,0,0,1,1.534,7.379,34.087,34.087,0,0,1-1.047,7.481,25.832,25.832,0,0,1-18.509-24.676,25.465,25.465,0,0,1,4.17-13.987l-2.435-5.313a30.926,30.926,0,0,0,21.368,49.966l.176.016c.164.014.328.028.493.04q.277.02.555.035l.267.012q.237.011.475.018l.232.006c.133,0,.266,0,.4.005v0h.153v0c.133,0,.267,0,.4-.005l.232-.006q.238-.007.475-.018l.267-.012q.278-.015.555-.035c.165-.012.329-.026.492-.04l.176-.016a30.926,30.926,0,0,0,21.368-49.966M278.8,465.378a8.851,8.851,0,1,1,8.851-8.851,8.861,8.861,0,0,1-8.851,8.851" transform="translate(-238.913 -415.471)" fill="#c7ff00" fill-rule="evenodd"/><path d="M980.466,1011.894l-3.283,2.385,1.254,3.859h4.058l1.254-3.859Z" transform="translate(-940.591 -974.002)" fill="#c7ff00"/><path d="M857.93,996.182l-.361-2.028a7.764,7.764,0,0,0-.992,3.438Z" transform="translate(-824.501 -956.926)" fill="#c7ff00"/><path d="M920.168,1245.356l-1.455-.208a7.825,7.825,0,0,0,2.137,1.492Z" transform="translate(-884.31 -1198.522)" fill="#c7ff00"/><path d="M1012.386,888.167a7.813,7.813,0,0,0-2.114-.292h-.019a7.813,7.813,0,0,0-2.114.292l2.114.994v.005l0,0,.006,0,.006,0,0,0v-.005Z" transform="translate(-970.388 -854.627)" fill="#c7ff00"/><path d="M901.377,907.244l.417,2.534,1.879.609,3.11-2.264v-2.008l-2.38-1.194a7.834,7.834,0,0,0-3.026,2.322" transform="translate(-867.623 -871.036)" fill="#c7ff00"/><path d="M858.707,1071.194l-1.623,1.612a7.764,7.764,0,0,0,1.482,3.948l2.039.331,1.177-1.628-1.194-3.657Z" transform="translate(-824.989 -1031.081)" fill="#c7ff00"/><path d="M988.4,1208.73l-1.161-1.6h-3.867l-1.161,1.6.878,1.744a7.813,7.813,0,0,0,2.207.32h.02a7.814,7.814,0,0,0,2.207-.32Z" transform="translate(-945.434 -1161.928)" fill="#c7ff00"/><path d="M1236.977,996.182l.361-2.028a7.766,7.766,0,0,1,.992,3.438Z" transform="translate(-1190.656 -956.926)" fill="#c7ff00"/><path d="M1154.587,1245.356l1.455-.208a7.825,7.825,0,0,1-2.137,1.492Z" transform="translate(-1110.694 -1198.522)" fill="#c7ff00"/><path d="M1089.368,907.244l-.417,2.534-1.879.609-3.11-2.264v-2.008l2.38-1.194a7.837,7.837,0,0,1,3.025,2.322" transform="translate(-1043.371 -871.036)" fill="#c7ff00"/><path d="M1150.248,1071.194l1.623,1.612a7.765,7.765,0,0,1-1.481,3.948l-2.039.331-1.177-1.628,1.194-3.657Z" transform="translate(-1104.216 -1031.081)" fill="#c7ff00"/><g transform="translate(2.708 76.453)"><g transform="translate(0 0)"><path d="M271.438,492.337h5.134c1,0,1.925.446,1.925,1.671a1.35,1.35,0,0,1-.91,1.328v.019a1.556,1.556,0,0,1,1.216,1.606c0,.882-.422,2.005-2.49,2.005h-4.875Zm1.858,2.637h2.586a.633.633,0,0,0,.7-.715c0-.418-.192-.715-.958-.715H273.3Zm0,2.729h2.739a.719.719,0,0,0,.8-.78c0-.52-.335-.8-.987-.8H273.3Z" transform="translate(-271.438 -490.583)" fill="#010c29"/><path d="M322.647,492.337h4.971c1.9,0,2.212,1.123,2.212,1.8a1.512,1.512,0,0,1-1.111,1.6v.019c.814.121.939,1.123.939,1.773a2.386,2.386,0,0,0,.354,1.439h-2.03a2.374,2.374,0,0,1-.182-1.272c0-.928-.412-1.16-.987-1.16H324.5v2.432h-1.858Zm1.858,2.934h2.462a.819.819,0,0,0,.891-.845c0-.659-.537-.826-.987-.826H324.5Z" transform="translate(-314.372 -490.583)" fill="#010c29"/><path d="M372.5,497.6H369.36l-.556,1.365h-2l3.007-6.628h2.241l3.008,6.628h-2Zm-1.571-3.834-1.073,2.627H372Z" transform="translate(-351.392 -490.583)" fill="#010c29"/><path d="M421.9,493.3c-.115-.863-.967-.956-1.715-.956-.766,0-1.264.334-1.264.78,0,.353.306.548.785.622l2.327.362c1.245.195,2.193.65,2.193,1.856,0,1.235-.862,2.228-3.553,2.228-1.667,0-3.831-.2-3.85-2.274h2.088c.019.91.958,1.067,1.762,1.067.871,0,1.465-.251,1.465-.826,0-.511-.421-.65-1.159-.761l-1.7-.251c-1.188-.176-2.337-.52-2.337-1.875,0-1.476,1.245-2.079,3.391-2.079,1.408,0,3.5.232,3.621,2.107Z" transform="translate(-393.331 -489.62)" fill="#010c29"/><path d="M466.435,492.337h1.858v6.628h-1.858Z" transform="translate(-434.924 -490.583)" fill="#010c29"/><path d="M484.512,492.337h1.858v5.31h4.166v1.318h-6.024Z" transform="translate(-450.079 -490.583)" fill="#010c29"/><path d="M525.822,492.337h6.388V493.6h-4.53v1.374h4.3v1.207h-4.3V497.7h4.569v1.263h-6.427Z" transform="translate(-484.714 -490.583)" fill="#010c29"/><path d="M570.453,492.337h1.858v6.628h-1.858Z" transform="translate(-522.132 -490.583)" fill="#010c29"/><path d="M588.529,492.337H593.5c1.9,0,2.212,1.123,2.212,1.8a1.512,1.512,0,0,1-1.111,1.6v.019c.814.121.939,1.123.939,1.773a2.387,2.387,0,0,0,.354,1.439h-2.03a2.374,2.374,0,0,1-.182-1.272c0-.928-.412-1.16-.987-1.16h-2.308v2.432h-1.858Zm1.858,2.934h2.462a.819.819,0,0,0,.891-.845c0-.659-.536-.826-.987-.826h-2.366Z" transform="translate(-537.287 -490.583)" fill="#010c29"/><path d="M638.384,488.5h-3.141l-.556,1.365h-2l3.007-6.628h2.241l3.007,6.628h-2Zm-3.927-5.737c.22-.743.632-1.281,1.369-1.281.5,0,1.513.408,2.088.408.259,0,.431-.1.469-.362h.785c-.1.705-.421,1.272-1.245,1.272-.546,0-1.81-.464-2.174-.464-.249,0-.393.2-.469.427Zm2.356,1.9-1.073,2.627h2.145Z" transform="translate(-574.308 -481.481)" fill="#010c29"/><path d="M687.377,491.189c3.678,0,4.253,2.117,4.253,3.5s-.575,3.5-4.253,3.5-4.253-2.116-4.253-3.5S683.7,491.189,687.377,491.189Zm0,5.737a2.238,2.238,0,1,0-2.279-2.237A2.119,2.119,0,0,0,687.377,496.926Z" transform="translate(-616.596 -489.62)" fill="#010c29"/></g><g transform="translate(23.361 10.512)"><path d="M372.084,550.229h0a5.1,5.1,0,0,0-1.2-.548,4.385,4.385,0,0,1-.666-.268h0c-.211-.117-.342-.256-.342-.457,0-.358.292-.546.876-.546a4.931,4.931,0,0,1,1.808.423l-.141-1.158a.517.517,0,0,0-.139-.338h0a.529.529,0,0,0-.21-.115,4.633,4.633,0,0,0-1.422-.2c-1.7,0-2.439.97-2.458,1.978a1.685,1.685,0,0,0,.888,1.616,3.071,3.071,0,0,0,.43.242,3.05,3.05,0,0,1-.43-.243,4.248,4.248,0,0,0,.648.306,5.648,5.648,0,0,1,1.148.493l0,0a.5.5,0,0,1,.231.423c0,.329-.207.527-.819.527a3.9,3.9,0,0,1-1.893-.518l-.5,1.356c.044.023.092.045.141.068a5.8,5.8,0,0,0,2.4.507c1.507,0,2.449-.753,2.449-2.025a1.728,1.728,0,0,0-.794-1.525m-2.227.782a10.075,10.075,0,0,1,1.01.405,10.075,10.075,0,0,0-1.01-.405m.165-1.859a.494.494,0,0,0,.193.261.494.494,0,0,1-.193-.261m17.8-2.621a.427.427,0,0,0-.4.169l-.457.669a.3.3,0,0,0-.056.141c0,.064.044.118.139.122h1.207l.871-.726a3.127,3.127,0,0,1,.338-.29h0c.042-.031.082-.06.122-.086Zm-22.941.755h0a.36.36,0,0,0-.273-.109h-1.8a1.076,1.076,0,0,1,.123.443,2.618,2.618,0,0,1-.217.988l-1.78,4.635a.465.465,0,0,0-.028.15.23.23,0,0,0,.18.233.374.374,0,0,0,.094.013h1.3l.386-1.121h2.119l.226.81a.376.376,0,0,0,.235.283.321.321,0,0,0,.082.063.307.307,0,0,1-.082-.064.561.561,0,0,0,.189.029h1.525l-2.2-6.225a.351.351,0,0,0-.076-.127m-1.572,3.941.707-2.232.613,2.232Zm12.483-.216a10.052,10.052,0,0,1,1.01.405,9.986,9.986,0,0,0-1.01-.405m11.16-1.861v4.158a.308.308,0,0,0,.214.306.434.434,0,0,0,.143.024h1.3l.014-5.315v-.086h-1.889a1.924,1.924,0,0,1,.217.913m-3.33-1.864h0a.361.361,0,0,0-.273-.109h-1.8a1.077,1.077,0,0,1,.122.443,2.613,2.613,0,0,1-.217.988l-1.78,4.635a.461.461,0,0,0-.028.15.229.229,0,0,0,.18.233.37.37,0,0,0,.093.013h1.3l.386-1.121h2.119l.024.087.2.724a.378.378,0,0,0,.235.283.571.571,0,0,0,.189.028H385.9l-2.2-6.225a.351.351,0,0,0-.075-.127m-1.572,3.941.706-2.232.075.273.538,1.959Zm-4.029-1h0a5.107,5.107,0,0,0-1.206-.549,4.422,4.422,0,0,1-.665-.268h0c-.025-.014-.05-.028-.072-.043l.012.007a.494.494,0,0,1-.282-.42c0-.358.292-.546.876-.546a4.93,4.93,0,0,1,1.808.423l-.141-1.158a.518.518,0,0,0-.139-.338h0a.533.533,0,0,0-.21-.115,4.632,4.632,0,0,0-1.422-.2c-1.7,0-2.439.97-2.459,1.978a1.687,1.687,0,0,0,.888,1.616,3.276,3.276,0,0,0,.567.3,3.265,3.265,0,0,1-.567-.3,4.27,4.27,0,0,0,.647.306c.11.043.217.082.32.119l.1.036.066.024.03.011-.018-.007c.115.043.222.083.319.125h0l.081.037.017.008.079.04a1.247,1.247,0,0,1,.158.1l0,0a.505.505,0,0,1,.231.423c0,.329-.207.527-.82.527a3.9,3.9,0,0,1-1.893-.518l-.5,1.356c.045.023.092.045.14.068a5.8,5.8,0,0,0,2.4.507c1.507,0,2.449-.753,2.449-2.025a1.728,1.728,0,0,0-.794-1.525" transform="translate(-360.906 -546.531)" fill="#010c29"/></g></g></g></g></svg>